<mxfile host="app.diagrams.net" agent="Mozilla/5.0 (Windows NT 10.0; Win64; x64) AppleWebKit/537.36 (KHTML, like Gecko) Chrome/141.0.0.0 Safari/537.36" version="28.2.8">
  <diagram name="Page-1" id="0h23OUbqIbt9me7i8CGn">
    <mxGraphModel dx="1042" dy="570" grid="1" gridSize="10" guides="1" tooltips="1" connect="1" arrows="1" fold="1" page="1" pageScale="1" pageWidth="850" pageHeight="1100" math="0" shadow="0">
      <root>
        <mxCell id="0" />
        <mxCell id="1" parent="0" />
        <mxCell id="dnrJ1EkXZgyWCISczhn_-1" value="lamp dasant work" style="rounded=0;whiteSpace=wrap;html=1;" vertex="1" parent="1">
          <mxGeometry x="50" y="50" width="140" height="90" as="geometry" />
        </mxCell>
        <mxCell id="dnrJ1EkXZgyWCISczhn_-5" style="edgeStyle=orthogonalEdgeStyle;rounded=0;orthogonalLoop=1;jettySize=auto;html=1;exitX=1;exitY=0.5;exitDx=0;exitDy=0;exitPerimeter=0;" edge="1" parent="1" source="dnrJ1EkXZgyWCISczhn_-3">
          <mxGeometry relative="1" as="geometry">
            <mxPoint x="113" y="250" as="targetPoint" />
          </mxGeometry>
        </mxCell>
        <mxCell id="dnrJ1EkXZgyWCISczhn_-3" value="" style="html=1;shadow=0;dashed=0;align=center;verticalAlign=middle;shape=mxgraph.arrows2.arrow;dy=0.6;dx=40;direction=south;notch=0;" vertex="1" parent="1">
          <mxGeometry x="92.5" y="140" width="55" height="80" as="geometry" />
        </mxCell>
        <mxCell id="dnrJ1EkXZgyWCISczhn_-4" style="edgeStyle=orthogonalEdgeStyle;rounded=0;orthogonalLoop=1;jettySize=auto;html=1;" edge="1" parent="1" source="dnrJ1EkXZgyWCISczhn_-3" target="dnrJ1EkXZgyWCISczhn_-3">
          <mxGeometry relative="1" as="geometry" />
        </mxCell>
        <mxCell id="dnrJ1EkXZgyWCISczhn_-7" style="edgeStyle=orthogonalEdgeStyle;rounded=0;orthogonalLoop=1;jettySize=auto;html=1;" edge="1" parent="1" source="dnrJ1EkXZgyWCISczhn_-6">
          <mxGeometry relative="1" as="geometry">
            <mxPoint x="200" y="270" as="targetPoint" />
          </mxGeometry>
        </mxCell>
        <mxCell id="dnrJ1EkXZgyWCISczhn_-8" style="edgeStyle=orthogonalEdgeStyle;rounded=0;orthogonalLoop=1;jettySize=auto;html=1;" edge="1" parent="1" source="dnrJ1EkXZgyWCISczhn_-6">
          <mxGeometry relative="1" as="geometry">
            <mxPoint x="120" y="360" as="targetPoint" />
          </mxGeometry>
        </mxCell>
        <mxCell id="dnrJ1EkXZgyWCISczhn_-6" value="lamp plogued or not" style="rhombus;whiteSpace=wrap;html=1;" vertex="1" parent="1">
          <mxGeometry x="50" y="230" width="130" height="110" as="geometry" />
        </mxCell>
        <mxCell id="dnrJ1EkXZgyWCISczhn_-11" style="edgeStyle=orthogonalEdgeStyle;rounded=0;orthogonalLoop=1;jettySize=auto;html=1;" edge="1" parent="1" source="dnrJ1EkXZgyWCISczhn_-10">
          <mxGeometry relative="1" as="geometry">
            <mxPoint x="310" y="295" as="targetPoint" />
          </mxGeometry>
        </mxCell>
        <mxCell id="dnrJ1EkXZgyWCISczhn_-10" value="" style="html=1;shadow=0;dashed=0;align=center;verticalAlign=middle;shape=mxgraph.arrows2.arrow;dy=0.6;dx=40;notch=0;" vertex="1" parent="1">
          <mxGeometry x="180" y="270" width="110" height="50" as="geometry" />
        </mxCell>
        <mxCell id="dnrJ1EkXZgyWCISczhn_-13" value="no" style="shape=parallelogram;perimeter=parallelogramPerimeter;whiteSpace=wrap;html=1;fixedSize=1;" vertex="1" parent="1">
          <mxGeometry x="305" y="265" width="120" height="60" as="geometry" />
        </mxCell>
        <mxCell id="dnrJ1EkXZgyWCISczhn_-14" value="" style="html=1;shadow=0;dashed=0;align=center;verticalAlign=middle;shape=mxgraph.arrows2.arrow;dy=0.6;dx=40;direction=south;notch=0;" vertex="1" parent="1">
          <mxGeometry x="80" y="340" width="70" height="100" as="geometry" />
        </mxCell>
        <mxCell id="dnrJ1EkXZgyWCISczhn_-17" style="edgeStyle=orthogonalEdgeStyle;rounded=0;orthogonalLoop=1;jettySize=auto;html=1;" edge="1" parent="1" source="dnrJ1EkXZgyWCISczhn_-16">
          <mxGeometry relative="1" as="geometry">
            <mxPoint x="190" y="460" as="targetPoint" />
          </mxGeometry>
        </mxCell>
        <mxCell id="dnrJ1EkXZgyWCISczhn_-16" value="bulb is ok or not" style="rhombus;whiteSpace=wrap;html=1;" vertex="1" parent="1">
          <mxGeometry x="45" y="440" width="140" height="110" as="geometry" />
        </mxCell>
        <mxCell id="dnrJ1EkXZgyWCISczhn_-19" style="edgeStyle=orthogonalEdgeStyle;rounded=0;orthogonalLoop=1;jettySize=auto;html=1;" edge="1" parent="1" source="dnrJ1EkXZgyWCISczhn_-18" target="dnrJ1EkXZgyWCISczhn_-20">
          <mxGeometry relative="1" as="geometry">
            <mxPoint x="320" y="495" as="targetPoint" />
          </mxGeometry>
        </mxCell>
        <mxCell id="dnrJ1EkXZgyWCISczhn_-18" value="" style="html=1;shadow=0;dashed=0;align=center;verticalAlign=middle;shape=mxgraph.arrows2.arrow;dy=0.6;dx=40;notch=0;" vertex="1" parent="1">
          <mxGeometry x="190" y="460" width="100" height="70" as="geometry" />
        </mxCell>
        <mxCell id="dnrJ1EkXZgyWCISczhn_-20" value="replace bulb" style="shape=parallelogram;perimeter=parallelogramPerimeter;whiteSpace=wrap;html=1;fixedSize=1;" vertex="1" parent="1">
          <mxGeometry x="300" y="460" width="120" height="60" as="geometry" />
        </mxCell>
        <mxCell id="dnrJ1EkXZgyWCISczhn_-21" value="" style="html=1;shadow=0;dashed=0;align=center;verticalAlign=middle;shape=mxgraph.arrows2.arrow;dy=0.6;dx=40;direction=south;notch=0;" vertex="1" parent="1">
          <mxGeometry x="80" y="550" width="70" height="100" as="geometry" />
        </mxCell>
        <mxCell id="dnrJ1EkXZgyWCISczhn_-23" value="" style="shape=parallelogram;perimeter=parallelogramPerimeter;whiteSpace=wrap;html=1;fixedSize=1;" vertex="1" parent="1">
          <mxGeometry x="65" y="650" width="120" height="80" as="geometry" />
        </mxCell>
      </root>
    </mxGraphModel>
  </diagram>
</mxfile>
